<mxfile host="app.diagrams.net" agent="Mozilla/5.0 (Windows NT 10.0; Win64; x64) AppleWebKit/537.36 (KHTML, like Gecko) Chrome/136.0.0.0 Safari/537.36" version="27.0.5">
  <diagram name="Σελίδα-1" id="OPwTdlBnQl_b4zdNLcP2">
    <mxGraphModel dx="1206" dy="1695" grid="1" gridSize="10" guides="1" tooltips="1" connect="1" arrows="1" fold="1" page="1" pageScale="1" pageWidth="827" pageHeight="1169" math="0" shadow="0" adaptiveColors="none">
      <root>
        <mxCell id="0" />
        <mxCell id="1" parent="0" />
        <mxCell id="mAhz6uwd19VNTwSY--s2-2" value="" style="shape=umlLifeline;perimeter=lifelinePerimeter;whiteSpace=wrap;html=1;container=1;dropTarget=0;collapsible=0;recursiveResize=0;outlineConnect=0;portConstraint=eastwest;newEdgeStyle={&quot;curved&quot;:0,&quot;rounded&quot;:0};participant=umlActor;" parent="1" vertex="1">
          <mxGeometry x="540" y="190" width="20" height="1040" as="geometry" />
        </mxCell>
        <mxCell id="mAhz6uwd19VNTwSY--s2-3" value="" style="html=1;points=[[0,0,0,0,5],[0,1,0,0,-5],[1,0,0,0,5],[1,1,0,0,-5]];perimeter=orthogonalPerimeter;outlineConnect=0;targetShapes=umlLifeline;portConstraint=eastwest;newEdgeStyle={&quot;curved&quot;:0,&quot;rounded&quot;:0};" parent="mAhz6uwd19VNTwSY--s2-2" vertex="1">
          <mxGeometry x="5" y="40" width="10" height="430" as="geometry" />
        </mxCell>
        <mxCell id="mAhz6uwd19VNTwSY--s2-6" value=":MainScreenLogin" style="shape=umlLifeline;perimeter=lifelinePerimeter;whiteSpace=wrap;html=1;container=1;dropTarget=0;collapsible=0;recursiveResize=0;outlineConnect=0;portConstraint=eastwest;newEdgeStyle={&quot;curved&quot;:0,&quot;rounded&quot;:0};" parent="1" vertex="1">
          <mxGeometry x="800" y="190" width="100" height="1040" as="geometry" />
        </mxCell>
        <mxCell id="mAhz6uwd19VNTwSY--s2-7" value="" style="html=1;points=[[0,0,0,0,5],[0,1,0,0,-5],[1,0,0,0,5],[1,1,0,0,-5]];perimeter=orthogonalPerimeter;outlineConnect=0;targetShapes=umlLifeline;portConstraint=eastwest;newEdgeStyle={&quot;curved&quot;:0,&quot;rounded&quot;:0};" parent="mAhz6uwd19VNTwSY--s2-6" vertex="1">
          <mxGeometry x="45" y="40" width="10" height="50" as="geometry" />
        </mxCell>
        <mxCell id="mAhz6uwd19VNTwSY--s2-8" value="" style="html=1;points=[[0,0,0,0,5],[0,1,0,0,-5],[1,0,0,0,5],[1,1,0,0,-5]];perimeter=orthogonalPerimeter;outlineConnect=0;targetShapes=umlLifeline;portConstraint=eastwest;newEdgeStyle={&quot;curved&quot;:0,&quot;rounded&quot;:0};" parent="mAhz6uwd19VNTwSY--s2-6" vertex="1">
          <mxGeometry x="45" y="100" width="10" height="50" as="geometry" />
        </mxCell>
        <mxCell id="mAhz6uwd19VNTwSY--s2-75" value="" style="html=1;points=[[0,0,0,0,5],[0,1,0,0,-5],[1,0,0,0,5],[1,1,0,0,-5]];perimeter=orthogonalPerimeter;outlineConnect=0;targetShapes=umlLifeline;portConstraint=eastwest;newEdgeStyle={&quot;curved&quot;:0,&quot;rounded&quot;:0};" parent="mAhz6uwd19VNTwSY--s2-6" vertex="1">
          <mxGeometry x="45" y="190" width="10" height="30" as="geometry" />
        </mxCell>
        <mxCell id="mAhz6uwd19VNTwSY--s2-10" value=":Database" style="shape=umlLifeline;perimeter=lifelinePerimeter;whiteSpace=wrap;html=1;container=1;dropTarget=0;collapsible=0;recursiveResize=0;outlineConnect=0;portConstraint=eastwest;newEdgeStyle={&quot;curved&quot;:0,&quot;rounded&quot;:0};" parent="1" vertex="1">
          <mxGeometry x="1280" y="190" width="100" height="1040" as="geometry" />
        </mxCell>
        <mxCell id="mAhz6uwd19VNTwSY--s2-18" value="alt" style="shape=umlFrame;whiteSpace=wrap;html=1;pointerEvents=0;" parent="mAhz6uwd19VNTwSY--s2-10" vertex="1">
          <mxGeometry x="-1090" y="180" width="1160" height="180" as="geometry" />
        </mxCell>
        <mxCell id="mAhz6uwd19VNTwSY--s2-78" value="" style="html=1;points=[[0,0,0,0,5],[0,1,0,0,-5],[1,0,0,0,5],[1,1,0,0,-5]];perimeter=orthogonalPerimeter;outlineConnect=0;targetShapes=umlLifeline;portConstraint=eastwest;newEdgeStyle={&quot;curved&quot;:0,&quot;rounded&quot;:0};" parent="mAhz6uwd19VNTwSY--s2-10" vertex="1">
          <mxGeometry x="45" y="40" width="10" height="430" as="geometry" />
        </mxCell>
        <mxCell id="mAhz6uwd19VNTwSY--s2-13" value="enter username" style="html=1;verticalAlign=bottom;endArrow=block;curved=0;rounded=0;entryX=0;entryY=0;entryDx=0;entryDy=5;entryPerimeter=0;" parent="1" source="mAhz6uwd19VNTwSY--s2-3" target="mAhz6uwd19VNTwSY--s2-8" edge="1">
          <mxGeometry x="-0.0909" width="80" relative="1" as="geometry">
            <mxPoint x="560" y="290.0000000000001" as="sourcePoint" />
            <mxPoint x="778.81" y="290.0000000000001" as="targetPoint" />
            <mxPoint as="offset" />
          </mxGeometry>
        </mxCell>
        <mxCell id="mAhz6uwd19VNTwSY--s2-15" value="enter password" style="html=1;verticalAlign=bottom;endArrow=block;curved=0;rounded=0;entryX=0;entryY=0.544;entryDx=0;entryDy=0;entryPerimeter=0;" parent="1" source="mAhz6uwd19VNTwSY--s2-3" target="mAhz6uwd19VNTwSY--s2-8" edge="1">
          <mxGeometry x="-0.113" y="3" width="80" relative="1" as="geometry">
            <mxPoint x="560" y="320" as="sourcePoint" />
            <mxPoint x="850" y="316" as="targetPoint" />
            <mxPoint as="offset" />
          </mxGeometry>
        </mxCell>
        <mxCell id="mAhz6uwd19VNTwSY--s2-16" value="match with user" style="html=1;verticalAlign=bottom;endArrow=block;curved=0;rounded=0;" parent="1" edge="1">
          <mxGeometry width="80" relative="1" as="geometry">
            <mxPoint x="1156" y="350" as="sourcePoint" />
            <mxPoint x="1325" y="350" as="targetPoint" />
          </mxGeometry>
        </mxCell>
        <mxCell id="mAhz6uwd19VNTwSY--s2-21" value="loop" style="shape=umlFrame;whiteSpace=wrap;html=1;pointerEvents=0;" parent="1" vertex="1">
          <mxGeometry x="180" y="270" width="1180" height="390" as="geometry" />
        </mxCell>
        <mxCell id="mAhz6uwd19VNTwSY--s2-24" value="click(Login)" style="html=1;verticalAlign=bottom;endArrow=block;curved=0;rounded=0;entryX=0;entryY=1;entryDx=0;entryDy=-5;entryPerimeter=0;" parent="1" source="mAhz6uwd19VNTwSY--s2-3" target="mAhz6uwd19VNTwSY--s2-8" edge="1">
          <mxGeometry width="80" relative="1" as="geometry">
            <mxPoint x="556" y="339.99999999999994" as="sourcePoint" />
            <mxPoint x="840" y="340" as="targetPoint" />
          </mxGeometry>
        </mxCell>
        <mxCell id="mAhz6uwd19VNTwSY--s2-31" value=":Authentication" style="shape=umlLifeline;perimeter=lifelinePerimeter;whiteSpace=wrap;html=1;container=1;dropTarget=0;collapsible=0;recursiveResize=0;outlineConnect=0;portConstraint=eastwest;newEdgeStyle={&quot;curved&quot;:0,&quot;rounded&quot;:0};" parent="1" vertex="1">
          <mxGeometry x="1100" y="190" width="100" height="1050" as="geometry" />
        </mxCell>
        <mxCell id="mAhz6uwd19VNTwSY--s2-62" value="" style="html=1;points=[[0,0,0,0,5],[0,1,0,0,-5],[1,0,0,0,5],[1,1,0,0,-5]];perimeter=orthogonalPerimeter;outlineConnect=0;targetShapes=umlLifeline;portConstraint=eastwest;newEdgeStyle={&quot;curved&quot;:0,&quot;rounded&quot;:0};" parent="mAhz6uwd19VNTwSY--s2-31" vertex="1">
          <mxGeometry x="45" y="380" width="10" height="35" as="geometry" />
        </mxCell>
        <mxCell id="mAhz6uwd19VNTwSY--s2-39" value="" style="html=1;points=[[0,0,0,0,5],[0,1,0,0,-5],[1,0,0,0,5],[1,1,0,0,-5]];perimeter=orthogonalPerimeter;outlineConnect=0;targetShapes=umlLifeline;portConstraint=eastwest;newEdgeStyle={&quot;curved&quot;:0,&quot;rounded&quot;:0};" parent="mAhz6uwd19VNTwSY--s2-31" vertex="1">
          <mxGeometry x="45" y="270" width="10" height="30" as="geometry" />
        </mxCell>
        <mxCell id="mAhz6uwd19VNTwSY--s2-76" value="" style="html=1;points=[[0,0,0,0,5],[0,1,0,0,-5],[1,0,0,0,5],[1,1,0,0,-5]];perimeter=orthogonalPerimeter;outlineConnect=0;targetShapes=umlLifeline;portConstraint=eastwest;newEdgeStyle={&quot;curved&quot;:0,&quot;rounded&quot;:0};" parent="mAhz6uwd19VNTwSY--s2-31" vertex="1">
          <mxGeometry x="45" y="140" width="10" height="30" as="geometry" />
        </mxCell>
        <mxCell id="mAhz6uwd19VNTwSY--s2-79" value="" style="html=1;points=[[0,0,0,0,5],[0,1,0,0,-5],[1,0,0,0,5],[1,1,0,0,-5]];perimeter=orthogonalPerimeter;outlineConnect=0;targetShapes=umlLifeline;portConstraint=eastwest;newEdgeStyle={&quot;curved&quot;:0,&quot;rounded&quot;:0};" parent="mAhz6uwd19VNTwSY--s2-31" vertex="1">
          <mxGeometry x="45" y="190" width="10" height="30" as="geometry" />
        </mxCell>
        <mxCell id="mAhz6uwd19VNTwSY--s2-32" value="display(login form)" style="html=1;verticalAlign=bottom;endArrow=open;dashed=1;endSize=8;curved=0;rounded=0;exitX=0;exitY=1;exitDx=0;exitDy=-5;exitPerimeter=0;" parent="1" edge="1">
          <mxGeometry relative="1" as="geometry">
            <mxPoint x="845" y="260" as="sourcePoint" />
            <mxPoint x="555.0000000000002" y="260" as="targetPoint" />
          </mxGeometry>
        </mxCell>
        <mxCell id="mAhz6uwd19VNTwSY--s2-33" value="check(username, password)" style="html=1;verticalAlign=bottom;endArrow=block;curved=0;rounded=0;exitX=0.95;exitY=0.598;exitDx=0;exitDy=0;exitPerimeter=0;" parent="1" edge="1">
          <mxGeometry width="80" relative="1" as="geometry">
            <mxPoint x="854.5" y="340.0000000000001" as="sourcePoint" />
            <mxPoint x="1145" y="340.0000000000001" as="targetPoint" />
          </mxGeometry>
        </mxCell>
        <mxCell id="mAhz6uwd19VNTwSY--s2-49" value="matched" style="html=1;verticalAlign=bottom;endArrow=open;dashed=1;endSize=8;curved=0;rounded=0;exitX=-0.133;exitY=0.339;exitDx=0;exitDy=0;exitPerimeter=0;" parent="1" edge="1">
          <mxGeometry x="0.0731" y="10" relative="1" as="geometry">
            <mxPoint x="1324.67" y="390.00000000000017" as="sourcePoint" />
            <mxPoint x="1156" y="390.00000000000017" as="targetPoint" />
            <mxPoint as="offset" />
          </mxGeometry>
        </mxCell>
        <mxCell id="mAhz6uwd19VNTwSY--s2-41" value="return(&quot;Καλώς ήρθατε&quot;)" style="html=1;verticalAlign=bottom;endArrow=open;dashed=1;endSize=8;curved=0;rounded=0;exitX=0;exitY=1;exitDx=0;exitDy=-5;exitPerimeter=0;" parent="1" target="mAhz6uwd19VNTwSY--s2-75" edge="1">
          <mxGeometry relative="1" as="geometry">
            <mxPoint x="1145" y="395" as="sourcePoint" />
            <mxPoint x="855" y="425" as="targetPoint" />
          </mxGeometry>
        </mxCell>
        <mxCell id="mAhz6uwd19VNTwSY--s2-17" value="display(&quot;Καλώς ήρθατε&quot;)" style="html=1;verticalAlign=bottom;endArrow=open;dashed=1;endSize=8;curved=0;rounded=0;exitX=0;exitY=1;exitDx=0;exitDy=-5;exitPerimeter=0;" parent="1" source="mAhz6uwd19VNTwSY--s2-75" target="mAhz6uwd19VNTwSY--s2-3" edge="1">
          <mxGeometry relative="1" as="geometry">
            <mxPoint x="845" y="435" as="sourcePoint" />
            <mxPoint x="555" y="435" as="targetPoint" />
            <mxPoint as="offset" />
          </mxGeometry>
        </mxCell>
        <mxCell id="mAhz6uwd19VNTwSY--s2-42" value="give user privileges over permissions" style="html=1;verticalAlign=bottom;endArrow=open;dashed=1;endSize=8;curved=0;rounded=0;exitX=0;exitY=1;exitDx=0;exitDy=-5;exitPerimeter=0;" parent="1" target="mAhz6uwd19VNTwSY--s2-3" edge="1">
          <mxGeometry x="-0.1299" relative="1" as="geometry">
            <mxPoint x="1325" y="425" as="sourcePoint" />
            <mxPoint x="555" y="455" as="targetPoint" />
            <mxPoint as="offset" />
          </mxGeometry>
        </mxCell>
        <mxCell id="mAhz6uwd19VNTwSY--s2-20" value="[username and password correct]" style="text;html=1;align=center;verticalAlign=middle;resizable=0;points=[];autosize=1;strokeColor=none;fillColor=none;" parent="1" vertex="1">
          <mxGeometry x="190" y="400" width="200" height="30" as="geometry" />
        </mxCell>
        <mxCell id="mAhz6uwd19VNTwSY--s2-9" value="[username and password wrong]" style="text;html=1;align=center;verticalAlign=middle;resizable=0;points=[];autosize=1;strokeColor=none;fillColor=none;" parent="1" vertex="1">
          <mxGeometry x="190" y="440" width="200" height="30" as="geometry" />
        </mxCell>
        <mxCell id="mAhz6uwd19VNTwSY--s2-35" value="" style="html=1;points=[[0,0,0,0,5],[0,1,0,0,-5],[1,0,0,0,5],[1,1,0,0,-5]];perimeter=orthogonalPerimeter;outlineConnect=0;targetShapes=umlLifeline;portConstraint=eastwest;newEdgeStyle={&quot;curved&quot;:0,&quot;rounded&quot;:0};" parent="1" vertex="1">
          <mxGeometry x="845" y="460" width="10" height="70" as="geometry" />
        </mxCell>
        <mxCell id="mAhz6uwd19VNTwSY--s2-51" value="return(&quot;Λανθασμένο username ή password.&lt;div&gt;Προσπαθήστε ξανά&quot;)&lt;/div&gt;" style="html=1;verticalAlign=bottom;endArrow=open;dashed=1;endSize=8;curved=0;rounded=0;" parent="1" source="mAhz6uwd19VNTwSY--s2-39" target="mAhz6uwd19VNTwSY--s2-35" edge="1">
          <mxGeometry relative="1" as="geometry">
            <mxPoint x="1020" y="550" as="sourcePoint" />
            <mxPoint x="940" y="550" as="targetPoint" />
          </mxGeometry>
        </mxCell>
        <mxCell id="mAhz6uwd19VNTwSY--s2-46" value="&lt;div&gt;&lt;br&gt;&lt;/div&gt;&lt;div&gt;&lt;br&gt;&lt;/div&gt;" style="html=1;verticalAlign=bottom;endArrow=open;dashed=1;endSize=8;curved=0;rounded=0;entryX=1.2;entryY=0.529;entryDx=0;entryDy=0;entryPerimeter=0;" parent="1" edge="1">
          <mxGeometry x="-0.0833" y="10" relative="1" as="geometry">
            <mxPoint x="1325" y="464.60000000000014" as="sourcePoint" />
            <mxPoint x="1157" y="464.60000000000014" as="targetPoint" />
            <mxPoint as="offset" />
          </mxGeometry>
        </mxCell>
        <mxCell id="mAhz6uwd19VNTwSY--s2-50" value="wrong username or password" style="edgeLabel;html=1;align=center;verticalAlign=middle;resizable=0;points=[];" parent="mAhz6uwd19VNTwSY--s2-46" vertex="1" connectable="0">
          <mxGeometry x="0.0222" y="-5" relative="1" as="geometry">
            <mxPoint x="2" y="-6" as="offset" />
          </mxGeometry>
        </mxCell>
        <mxCell id="mAhz6uwd19VNTwSY--s2-53" value="display(&quot;Λανθασμένο username ή password.&lt;div&gt;Προσπαθήστε ξανά&quot;)&lt;/div&gt;" style="html=1;verticalAlign=bottom;endArrow=open;dashed=1;endSize=8;curved=0;rounded=0;exitX=0;exitY=1;exitDx=0;exitDy=-5;exitPerimeter=0;" parent="1" edge="1">
          <mxGeometry relative="1" as="geometry">
            <mxPoint x="845" y="490.00000000000006" as="sourcePoint" />
            <mxPoint x="555" y="490.00000000000006" as="targetPoint" />
          </mxGeometry>
        </mxCell>
        <mxCell id="mAhz6uwd19VNTwSY--s2-55" value="click(X)" style="html=1;verticalAlign=bottom;endArrow=block;curved=0;rounded=0;exitX=0.95;exitY=0.439;exitDx=0;exitDy=0;exitPerimeter=0;" parent="1" edge="1">
          <mxGeometry width="80" relative="1" as="geometry">
            <mxPoint x="554.5" y="510" as="sourcePoint" />
            <mxPoint x="845" y="510" as="targetPoint" />
          </mxGeometry>
        </mxCell>
        <mxCell id="mAhz6uwd19VNTwSY--s2-54" value="display(login form)" style="html=1;verticalAlign=bottom;endArrow=open;dashed=1;endSize=8;curved=0;rounded=0;exitX=0;exitY=1;exitDx=0;exitDy=-5;exitPerimeter=0;" parent="1" edge="1">
          <mxGeometry relative="1" as="geometry">
            <mxPoint x="845" y="530" as="sourcePoint" />
            <mxPoint x="555" y="530" as="targetPoint" />
          </mxGeometry>
        </mxCell>
        <mxCell id="mAhz6uwd19VNTwSY--s2-19" value="" style="endArrow=none;dashed=1;html=1;rounded=0;" parent="1" edge="1">
          <mxGeometry width="50" height="50" relative="1" as="geometry">
            <mxPoint x="1350" y="440" as="sourcePoint" />
            <mxPoint x="189" y="440" as="targetPoint" />
          </mxGeometry>
        </mxCell>
        <mxCell id="mAhz6uwd19VNTwSY--s2-30" value="alt" style="shape=umlFrame;whiteSpace=wrap;html=1;pointerEvents=0;" parent="1" vertex="1">
          <mxGeometry x="190" y="560" width="1160" height="90" as="geometry" />
        </mxCell>
        <mxCell id="mAhz6uwd19VNTwSY--s2-56" value="[username and password dont exist]" style="text;html=1;align=center;verticalAlign=middle;resizable=0;points=[];autosize=1;strokeColor=none;fillColor=none;" parent="1" vertex="1">
          <mxGeometry x="190" y="590" width="220" height="30" as="geometry" />
        </mxCell>
        <mxCell id="mAhz6uwd19VNTwSY--s2-80" value="" style="html=1;points=[[0,0,0,0,5],[0,1,0,0,-5],[1,0,0,0,5],[1,1,0,0,-5]];perimeter=orthogonalPerimeter;outlineConnect=0;targetShapes=umlLifeline;portConstraint=eastwest;newEdgeStyle={&quot;curved&quot;:0,&quot;rounded&quot;:0};" parent="1" vertex="1">
          <mxGeometry x="845" y="584.5" width="10" height="55.5" as="geometry" />
        </mxCell>
        <mxCell id="mAhz6uwd19VNTwSY--s2-72" value="display(&quot;Ο χρήστης δεν βρέθηκε.&lt;span style=&quot;background-color: light-dark(#ffffff, var(--ge-dark-color, #121212)); color: light-dark(rgb(0, 0, 0), rgb(255, 255, 255));&quot;&gt;&quot;)&lt;/span&gt;" style="html=1;verticalAlign=bottom;endArrow=open;dashed=1;endSize=8;curved=0;rounded=0;exitX=0;exitY=1;exitDx=0;exitDy=-5;exitPerimeter=0;" parent="1" edge="1">
          <mxGeometry relative="1" as="geometry">
            <mxPoint x="845" y="604.47" as="sourcePoint" />
            <mxPoint x="555" y="604.47" as="targetPoint" />
          </mxGeometry>
        </mxCell>
        <mxCell id="mAhz6uwd19VNTwSY--s2-74" value="click(X)" style="html=1;verticalAlign=bottom;endArrow=block;curved=0;rounded=0;exitX=0.95;exitY=0.439;exitDx=0;exitDy=0;exitPerimeter=0;" parent="1" edge="1">
          <mxGeometry width="80" relative="1" as="geometry">
            <mxPoint x="555" y="620" as="sourcePoint" />
            <mxPoint x="845" y="620" as="targetPoint" />
          </mxGeometry>
        </mxCell>
        <mxCell id="mAhz6uwd19VNTwSY--s2-73" value="display(login form)" style="html=1;verticalAlign=bottom;endArrow=open;dashed=1;endSize=8;curved=0;rounded=0;exitX=0;exitY=1;exitDx=0;exitDy=-5;exitPerimeter=0;" parent="1" edge="1">
          <mxGeometry relative="1" as="geometry">
            <mxPoint x="845" y="640" as="sourcePoint" />
            <mxPoint x="555" y="640" as="targetPoint" />
          </mxGeometry>
        </mxCell>
        <mxCell id="mAhz6uwd19VNTwSY--s2-71" value="return(&quot;Ο χρήστης δεν βρέθηκε.&lt;span style=&quot;background-color: light-dark(#ffffff, var(--ge-dark-color, #121212)); color: light-dark(rgb(0, 0, 0), rgb(255, 255, 255));&quot;&gt;&quot;)&lt;/span&gt;" style="html=1;verticalAlign=bottom;endArrow=open;dashed=1;endSize=8;curved=0;rounded=0;entryX=1.033;entryY=0.681;entryDx=0;entryDy=0;entryPerimeter=0;" parent="1" edge="1">
          <mxGeometry relative="1" as="geometry">
            <mxPoint x="1145" y="590" as="sourcePoint" />
            <mxPoint x="855" y="590" as="targetPoint" />
          </mxGeometry>
        </mxCell>
        <mxCell id="mAhz6uwd19VNTwSY--s2-69" value="&lt;div&gt;&lt;br&gt;&lt;/div&gt;&lt;div&gt;&lt;br&gt;&lt;/div&gt;" style="html=1;verticalAlign=bottom;endArrow=open;dashed=1;endSize=8;curved=0;rounded=0;" parent="1" target="mAhz6uwd19VNTwSY--s2-62" edge="1">
          <mxGeometry x="-0.0833" y="10" relative="1" as="geometry">
            <mxPoint x="1325" y="583.45" as="sourcePoint" />
            <mxPoint x="1157" y="583.45" as="targetPoint" />
            <mxPoint as="offset" />
          </mxGeometry>
        </mxCell>
        <mxCell id="mAhz6uwd19VNTwSY--s2-70" value="no match for username&lt;div&gt;&amp;nbsp;and password&lt;/div&gt;" style="edgeLabel;html=1;align=center;verticalAlign=middle;resizable=0;points=[];" parent="mAhz6uwd19VNTwSY--s2-69" vertex="1" connectable="0">
          <mxGeometry x="0.0222" y="-5" relative="1" as="geometry">
            <mxPoint x="11" y="8" as="offset" />
          </mxGeometry>
        </mxCell>
      </root>
    </mxGraphModel>
  </diagram>
</mxfile>
